HIERARCHY
ROOT Hips
{
  OFFSET -43.3411 73.6987 0
  CHANNELS 6 Xposition Yposition Zposition Zrotation Xrotation Yrotation
  JOINT Bip01_Pelvis
  {
    OFFSET 0 0 0
    CHANNELS 6 Xposition Yposition Zposition Zrotation Xrotation Yrotation
    JOINT BN_Tail_01
    {
      OFFSET -18.6385 -9.591 -2.032e-005
      CHANNELS 6 Xposition Yposition Zposition Zrotation Xrotation Yrotation
      JOINT BN_Tail_02
      {
        OFFSET 20.9743 0 0
        CHANNELS 6 Xposition Yposition Zposition Zrotation Xrotation Yrotation
        JOINT BN_Tail_03
        {
          OFFSET 20.3015 0 0
          CHANNELS 6 Xposition Yposition Zposition Zrotation Xrotation Yrotation
          JOINT BN_Tail_04
          {
            OFFSET 21.6394 -9.91821e-005 0
            CHANNELS 6 Xposition Yposition Zposition Zrotation Xrotation Yrotation
            End Site
            {
              OFFSET 0 0 0
            }
          }
        }
      }
    }
    JOINT Bip01_Spine
    {
      OFFSET 22.1878 -0.659386 3.048e-005
      CHANNELS 6 Xposition Yposition Zposition Zrotation Xrotation Yrotation
      JOINT Bip01_R_Thigh
      {
        OFFSET -22.1873 0.677109 -17.1024
        CHANNELS 6 Xposition Yposition Zposition Zrotation Xrotation Yrotation
        JOINT Bip01_R_Calf
        {
          OFFSET 34.2647 0 0
          CHANNELS 6 Xposition Yposition Zposition Zrotation Xrotation Yrotation
          JOINT Bip01_R_HorseLink
          {
            OFFSET 20.4429 0 0
            CHANNELS 6 Xposition Yposition Zposition Zrotation Xrotation Yrotation
            JOINT Bip01_R_Foot
            {
              OFFSET 16.5673 0 0
              CHANNELS 6 Xposition Yposition Zposition Zrotation Xrotation Yrotation
              JOINT Bip01_R_Toe0
              {
                OFFSET 9.18784 6.94841 0
                CHANNELS 6 Xposition Yposition Zposition Zrotation Xrotation Yrotation
                JOINT Bip01_R_Toe0Nub
                {
                  OFFSET 1.01907 0 0
                  CHANNELS 6 Xposition Yposition Zposition Zrotation Xrotation Yrotation
                  End Site
                  {
                    OFFSET 0 0 0
                  }
                }
              }
            }
          }
        }
      }
      JOINT Bip01_L_Thigh
      {
        OFFSET -22.1873 0.67701 17.1024
        CHANNELS 6 Xposition Yposition Zposition Zrotation Xrotation Yrotation
        JOINT Bip01_L_Calf
        {
          OFFSET 34.2647 0 0
          CHANNELS 6 Xposition Yposition Zposition Zrotation Xrotation Yrotation
          JOINT Bip01_L_HorseLink
          {
            OFFSET 20.4429 0 0
            CHANNELS 6 Xposition Yposition Zposition Zrotation Xrotation Yrotation
            JOINT Bip01_L_Foot
            {
              OFFSET 16.5673 0 0
              CHANNELS 6 Xposition Yposition Zposition Zrotation Xrotation Yrotation
              JOINT Bip01_L_Toe0
              {
                OFFSET 9.18784 6.9484 1.14441e-005
                CHANNELS 6 Xposition Yposition Zposition Zrotation Xrotation Yrotation
                JOINT Bip01_L_Toe0Nub
                {
                  OFFSET 1.01907 0 0
                  CHANNELS 6 Xposition Yposition Zposition Zrotation Xrotation Yrotation
                  End Site
                  {
                    OFFSET 0 0 0
                  }
                }
              }
            }
          }
        }
      }
      JOINT Bip01_Spine1
      {
        OFFSET 39.3372 -0.0249863 0
        CHANNELS 6 Xposition Yposition Zposition Zrotation Xrotation Yrotation
        JOINT Bip01_Neck
        {
          OFFSET 34.2837 -15.5934 -4.318e-005
          CHANNELS 6 Xposition Yposition Zposition Zrotation Xrotation Yrotation
          JOINT Bip01_R_Clavicle
          {
            OFFSET -17.9452 -11.3131 -6.19287
            CHANNELS 6 Xposition Yposition Zposition Zrotation Xrotation Yrotation
            JOINT Bip01_R_UpperArm
            {
              OFFSET 17.4439 1.52588e-005 -2.28882e-005
              CHANNELS 6 Xposition Yposition Zposition Zrotation Xrotation Yrotation
              JOINT Bip01_R_Forearm
              {
                OFFSET 30.6251 1.14441e-005 0
                CHANNELS 6 Xposition Yposition Zposition Zrotation Xrotation Yrotation
                JOINT Bip01_R_Hand
                {
                  OFFSET 31.2039 0 0
                  CHANNELS 6 Xposition Yposition Zposition Zrotation Xrotation Yrotation
                  JOINT Bip01_R_Finger0
                  {
                    OFFSET 22.1039 0.255862 -0.37902
                    CHANNELS 6 Xposition Yposition Zposition Zrotation Xrotation Yrotation
                    JOINT Bip01_R_Finger0Nub
                    {
                      OFFSET 12.0552 0 0
                      CHANNELS 6 Xposition Yposition Zposition Zrotation Xrotation Yrotation
                      End Site
                      {
                        OFFSET 0 0 0
                      }
                    }
                  }
                }
              }
            }
          }
          JOINT Bip01_L_Clavicle
          {
            OFFSET -17.9452 -11.3132 6.19281
            CHANNELS 6 Xposition Yposition Zposition Zrotation Xrotation Yrotation
            JOINT Bip01_L_UpperArm
            {
              OFFSET 17.444 0 1.14441e-005
              CHANNELS 6 Xposition Yposition Zposition Zrotation Xrotation Yrotation
              JOINT Bip01_L_Forearm
              {
                OFFSET 30.6251 0 0
                CHANNELS 6 Xposition Yposition Zposition Zrotation Xrotation Yrotation
                JOINT Bip01_L_Hand
                {
                  OFFSET 31.204 0 0
                  CHANNELS 6 Xposition Yposition Zposition Zrotation Xrotation Yrotation
                  JOINT Bip01_L_Finger0
                  {
                    OFFSET 22.1039 0.255856 0.379024
                    CHANNELS 6 Xposition Yposition Zposition Zrotation Xrotation Yrotation
                    JOINT Bip01_L_Finger0Nub
                    {
                      OFFSET 12.0552 0 0
                      CHANNELS 6 Xposition Yposition Zposition Zrotation Xrotation Yrotation
                      End Site
                      {
                        OFFSET 0 0 0
                      }
                    }
                  }
                }
              }
            }
          }
          JOINT Bip01_Neck1
          {
            OFFSET 14.9359 -0.0106278 0
            CHANNELS 6 Xposition Yposition Zposition Zrotation Xrotation Yrotation
            JOINT Bip01_Head
            {
              OFFSET 14.3578 0.505501 0
              CHANNELS 6 Xposition Yposition Zposition Zrotation Xrotation Yrotation
              JOINT BN_Ear_L_01
              {
                OFFSET 3.76994 -2.35629 12.3444
                CHANNELS 6 Xposition Yposition Zposition Zrotation Xrotation Yrotation
                End Site
                {
                  OFFSET 0 0 0
                }
              }
              JOINT BN_Ear_R_01
              {
                OFFSET 3.76995 -2.35622 -12.3442
                CHANNELS 6 Xposition Yposition Zposition Zrotation Xrotation Yrotation
                End Site
                {
                  OFFSET 0 0 0
                }
              }
              JOINT BN_Mouth_01
              {
                OFFSET 11.8395 10.8645 1.27e-005
                CHANNELS 6 Xposition Yposition Zposition Zrotation Xrotation Yrotation
                JOINT BN_Tongue_01
                {
                  OFFSET 9.73752 3.21674 1.016e-005
                  CHANNELS 6 Xposition Yposition Zposition Zrotation Xrotation Yrotation
                  JOINT BN_Tongue_02
                  {
                    OFFSET 9.04304 0.053505 0
                    CHANNELS 6 Xposition Yposition Zposition Zrotation Xrotation Yrotation
                    End Site
                    {
                      OFFSET 0 0 0
                    }
                  }
                }
                JOINT BN_Beard_01
                {
                  OFFSET 6.93466 -0.751793 0
                  CHANNELS 6 Xposition Yposition Zposition Zrotation Xrotation Yrotation
                  JOINT BN_Beard_02
                  {
                    OFFSET 13.0965 1.52588e-005 0
                    CHANNELS 6 Xposition Yposition Zposition Zrotation Xrotation Yrotation
                    End Site
                    {
                      OFFSET 0 0 0
                    }
                  }
                }
              }
              JOINT Bip01_HeadNub
              {
                OFFSET 25.6158 0 0
                CHANNELS 6 Xposition Yposition Zposition Zrotation Xrotation Yrotation
                End Site
                {
                  OFFSET 0 0 0
                }
              }
            }
          }
        }
      }
    }
  }
}
MOTION
Frames:	4
Frame Time:	0.0333333
-43.18 73.4314 -3.64583 169.056 -82.9363 -93.8295 0 0 3.8147e-006 -88.9117 11.0774 -83.2988 -18.6385 -9.59102 0 -44.8668 0.32634 179.943 20.9743 0 -0.000668526 22.7539 0.195753 15.2272 20.3015 0 -9.53674e-007 7.73176 2.53046 16.9741 21.6394 0 9.53674e-007 10.2958 5.51744 30.7461 21.7506 3.6175 2.56686 12.2814 -1.2402 -7.09641 -24.2809 1.51839 -16.7687 -136.118 -17.1899 171.92 34.2647 3.8147e-006 1.90735e-006 -87.1818 -5.89149e-007 9.85169e-006 20.4429 7.10543e-015 1.90735e-006 66.1828 -2.18727e-006 3.13629e-006 16.5673 -1.90735e-006 -5.72205e-006 -48.3663 -11.5313 -6.45481 9.18785 6.94839 0 79.1402 1.12147 0.379859 1.01907 -1.90735e-006 -1.90735e-006 1.11612e-006 2.44251e-008 8.79781e-008 -20.0546 0.776505 17.166 -113.404 -4.70159 179.6 34.2647 7.10543e-015 1.77636e-015 -65.105 -7.16227e-006 -1.56875e-005 20.4429 0 1.77636e-015 39.1935 7.66339e-006 -6.59016e-006 16.5673 3.8147e-006 1.90735e-006 12.7646 -2.81487 4.27221 9.18775 6.94854 -0.00143146 89.3491 0.834012 -0.111492 1.01907 2.22045e-016 9.53674e-007 179.962 -0.00521099 0.00883844 39.331 -0.0237961 -0.00432348 -14.6892 9.93656 10.897 34.288 -15.5923 0.00133324 24.1574 -6.62883 -3.04435 -21.1595 -3.2561 -5.49853 153.249 -25.1417 68.4455 17.444 7.6294e-006 0 -29.4665 23.1639 -33.5668 30.6251 7.10543e-015 6.4373e-006 -27.2291 1.07852e-005 7.7487e-006 31.2039 0 4.76837e-007 8.00651 39.5475 -6.462 22.1039 0.255864 -0.379043 -47.2344 64.1021 -3.05436 12.0552 0 -8.88177e-016 179.96 1.74491e-005 -5.86391e-005 -20.5061 -4.68667 6.78688 160.132 37.9119 -103.514 17.4439 1.42109e-014 3.8147e-006 2.93911 -78.2394 54.8229 30.6251 -1.90735e-006 0 -38.7039 -1.49598e-006 1.34397e-005 31.204 -3.8147e-006 0 9.11945 -23.0137 -4.27837 22.1039 0.255856 0.379028 -9.95926 -70.0733 1.47602 12.0552 -1.90735e-006 -3.81469e-006 -1.18025e-007 1.47461e-006 3.43236e-007 14.9357 -0.0105896 0.00104129 2.95892 -5.59471 -4.27314 14.3578 0.505509 1.77636e-015 -0.738456 5.76687 0.965147 3.76994 -2.35631 12.3444 169.454 35.3 -62.8757 3.76996 -2.35624 -12.3442 -11.9427 37.4768 117.954 11.8395 10.8645 -2.98023e-008 -172.924 -0.0608673 -179.996 9.73755 3.21672 -0.00274319 -0.769382 3.55333e-008 1.22483e-008 5.27072 0.746308 0.153271 -5.14606 -0.0594126 -0.00267089 6.93467 -0.751793 0.00124705 -66.2338 2.69615 -9.66912 13.0965 0.00138855 0.0129514 4.42294 4.3902 -10.9552 25.6158 7.6294e-006 -2.98023e-008 2.76197e-007 -1.48109e-008 -2.0773e-009 
-43.18 73.4094 -3.56698 169.07 -83.02 -93.8153 1.42109e-014 1.77636e-015 3.8147e-006 -88.648 11.0561 -83.7723 -18.6385 -9.59102 -2.66454e-015 -44.9107 0.321865 179.717 20.9743 4.26326e-014 -0.000668526 22.7125 0.345453 15.24 20.3015 0 -9.53674e-007 7.59694 2.49779 16.4419 21.6394 1.42109e-014 9.53674e-007 9.93149 5.3559 33.007 21.7723 3.60823 2.3898 12.2351 -1.17846 -6.88222 -24.2165 1.48887 -16.6836 -137.687 -18.2008 171.229 34.2647 3.8147e-006 1.90735e-006 -85.0219 -9.03113e-006 1.06573e-005 20.4429 1.42109e-014 1.90735e-006 65.6675 -2.25524e-006 3.2825e-006 16.5673 -1.90735e-006 -5.72205e-006 -46.6576 -12.1298 -6.87958 9.18785 6.94839 5.57677e-009 78.707 1.10818 0.375272 1.01907 -1.90735e-006 -1.90735e-006 1.11612e-006 2.44251e-008 8.79781e-008 -20.1179 0.784724 17.2675 -112.427 -5.07539 179.213 34.2647 2.84217e-014 3.55271e-015 -64.4114 -7.35163e-006 -1.55996e-005 20.4429 -2.84217e-014 -5.32907e-015 38.5242 7.73985e-006 -6.50019e-006 16.5673 3.8147e-006 1.90735e-006 13.5785 -3.09553 4.33661 9.18775 6.94854 -0.00143146 89.4331 0.763979 -0.106206 1.01907 -3.33067e-014 9.53674e-007 179.962 -0.00521099 0.00883844 39.331 -0.0237961 -0.00390027 -14.5158 9.26404 11.1974 34.288 -15.5923 0.00133324 23.9051 -6.63586 -3.19348 -21.1568 -3.34639 -5.45455 153.373 -25.7386 68.3402 17.444 7.6294e-006 -2.4869e-014 -28.1689 24.0152 -34.0981 30.6251 7.10543e-014 6.4373e-006 -27.6333 9.94998e-006 9.27635e-006 31.2039 -3.19745e-014 4.76837e-007 10.2204 37.9355 -8.12655 22.1039 0.255864 -0.379043 -44.5409 65.1329 -2.18544 12.0552 1.24345e-014 2.04281e-014 179.96 1.74487e-005 -5.86398e-005 -20.471 -4.77804 6.82897 160.337 37.0135 -103.049 17.4439 0 3.8147e-006 1.77227 -77.0835 54.5702 30.6251 -1.90735e-006 0 -40.3544 4.34416e-006 5.87756e-006 31.204 -3.8147e-006 7.10542e-015 10.2289 -23.4393 -4.68482 22.1039 0.255856 0.379028 -10.9628 -70.0008 1.61566 12.0552 -1.90735e-006 -3.81469e-006 -1.18025e-007 1.47461e-006 3.43236e-007 14.9357 -0.0105896 0.00104129 2.9914 -5.49514 -4.35524 14.3578 0.505509 9.17346e-011 -0.582759 6.08313 0.873951 3.76994 -2.35631 12.3444 169.298 35.5903 -62.2507 3.76996 -2.35624 -12.3442 -12.0564 37.7143 118.404 11.8395 10.8645 -2.96674e-008 -172.996 -0.0616608 -179.996 9.73755 3.21672 -0.00274319 -0.81176 3.55187e-008 1.2219e-008 5.27072 0.746308 0.153271 -5.12889 -0.0593905 -0.00290901 6.93467 -0.751793 0.00124705 -66.2495 2.63657 -9.7622 13.0965 0.00138855 0.0129514 4.77073 4.45026 -11.8402 25.6158 7.6294e-006 -2.98023e-008 2.76197e-007 -1.48109e-008 -2.0773e-009 
-43.18 73.3484 -3.46105 169.082 -83.124 -93.802 1.42109e-014 -1.77636e-015 3.8147e-006 -88.3825 10.994 -84.2843 -18.6385 -9.59102 2.66454e-015 -44.997 0.304391 179.106 20.9743 2.84217e-014 -0.000668526 22.6709 0.502995 15.2716 20.3015 1.42109e-014 -9.53674e-007 7.18846 2.39676 16.0253 21.6394 -1.42109e-014 9.53674e-007 9.13157 5.13409 34.9785 21.7961 3.58593 2.19852 12.0908 -1.0954 -6.64382 -24.1461 1.42975 -16.5945 -138.972 -19.6637 170.455 34.2647 3.8147e-006 1.90735e-006 -81.995 -8.19614e-006 1.11392e-005 20.4429 2.84217e-014 1.90735e-006 64.9847 -1.55388e-006 3.87766e-006 16.5673 -1.90735e-006 -5.72205e-006 -44.3166 -13.1643 -7.67051 9.18785 6.94839 2.06137e-008 77.5072 1.07711 0.364185 1.01907 -1.90735e-006 -1.90735e-006 1.11612e-006 2.44251e-008 8.79781e-008 -20.1888 0.774183 17.3744 -111.425 -5.42406 178.846 34.2647 7.10543e-015 5.32907e-015 -63.7945 -7.51917e-006 -1.55196e-005 20.4429 0 -3.55271e-015 37.9634 7.8031e-006 -6.42412e-006 16.5673 3.8147e-006 1.90735e-006 14.3685 -3.31497 4.40348 9.18775 6.94854 -0.00143146 89.5155 0.695315 -0.100923 1.01907 -2.13163e-014 9.53674e-007 179.962 -0.00521099 0.00883844 39.331 -0.0237961 -0.00348528 -14.2232 8.52329 11.4586 34.288 -15.5923 0.00133324 23.4613 -6.58794 -3.35411 -21.1407 -3.51194 -5.41274 153.698 -26.271 68.6329 17.444 7.6294e-006 -7.4607e-014 -26.3766 25.913 -35.3159 30.6251 9.94761e-014 6.4373e-006 -27.7332 6.34904e-006 1.60043e-005 31.2039 -1.77636e-014 4.76837e-007 12.9798 35.0519 -10.1449 22.1039 0.255864 -0.379043 -39.5258 66.959 -0.713959 12.0552 2.22045e-014 -2.66453e-014 179.96 1.74481e-005 -5.86406e-005 -20.4203 -4.93336 6.86999 160.674 35.9672 -102.557 17.4439 1.42109e-014 3.8147e-006 0.563594 -75.8775 54.4737 30.6251 -1.90735e-006 0 -41.9189 4.06496e-006 5.94353e-006 31.204 -3.8147e-006 7.10542e-015 11.098 -23.8244 -5.17509 22.1039 0.255856 0.379028 -11.935 -69.9264 1.7338 12.0552 -1.90735e-006 -3.81469e-006 -1.18025e-007 1.47461e-006 3.43236e-007 14.9357 -0.0105896 0.00104129 3.11536 -5.35253 -4.4155 14.3578 0.505509 1.95422e-010 -0.273194 6.37699 0.754273 3.76994 -2.35631 12.3444 169.14 35.8735 -61.6347 3.76996 -2.35624 -12.3442 -12.1706 37.9464 118.848 11.8395 10.8645 -2.95701e-008 -173.069 -0.0322113 -179.998 9.73755 3.21672 -0.00274319 -0.853315 3.54873e-008 1.21893e-008 5.27072 0.746308 0.153271 -5.11205 -0.059369 -0.00314124 6.93467 -0.751793 0.00124705 -66.2663 2.5611 -9.73296 13.0965 0.00138855 0.0129514 5.11266 4.50398 -12.7084 25.6158 7.6294e-006 -2.98023e-008 2.76197e-007 -1.48109e-008 -2.0773e-009 
-43.18 73.25 -3.32712 169.07 -83.2488 -93.8129 0 -8.88178e-016 3.8147e-006 -88.1116 10.9022 -84.8412 -18.6385 -9.59102 -6.21725e-015 -45.126 0.278859 178.132 20.9743 4.26326e-014 -0.000668526 22.6238 0.673868 15.3121 20.3015 -2.84217e-014 -9.53674e-007 6.52498 2.23315 15.6922 21.6394 8.52651e-014 9.53674e-007 8.33227 4.88231 36.9655 21.8218 3.55085 1.98914 11.8576 -0.997398 -6.37654 -24.0678 1.34263 -16.4993 -140.041 -21.468 169.609 34.2647 3.8147e-006 1.90735e-006 -78.1939 1.95083e-006 9.80895e-006 20.4429 6.39488e-014 1.90735e-006 64.0954 -2.10802e-006 3.97594e-006 16.5673 -1.90735e-006 -5.72205e-006 -41.4596 -14.7016 -8.56556 9.18785 6.94839 4.61201e-008 75.6491 1.02846 0.343835 1.01907 -1.90735e-006 -1.90735e-006 1.11612e-006 2.44251e-008 8.79781e-008 -20.2683 0.74574 17.4887 -110.373 -5.75901 178.489 34.2647 2.4869e-014 3.55271e-015 -63.231 -7.67143e-006 -1.54449e-005 20.4429 -4.26326e-014 -7.10543e-015 37.4978 7.85506e-006 -6.36049e-006 16.5673 3.8147e-006 1.90735e-006 15.1548 -3.4872 4.47092 9.18775 6.94854 -0.00143147 89.5987 0.625978 -0.0954886 1.01907 -5.10703e-015 9.53674e-007 179.962 -0.00521099 0.00883844 39.331 -0.0237961 -0.00306618 -13.8034 7.69341 11.6883 34.288 -15.5923 0.00133324 22.8316 -6.49023 -3.52774 -21.1101 -3.75032 -5.37206 154.227 -26.7481 69.2634 17.444 7.6294e-006 -8.88178e-014 -24.0896 28.5945 -37.1998 30.6251 9.94761e-014 6.4373e-006 -27.6575 1.10856e-005 6.84441e-006 31.2039 -4.4409e-014 4.76837e-007 16.0313 31.1045 -12.231 22.1039 0.255864 -0.379043 -32.284 69.4556 0.760025 12.0552 1.954e-014 1.77635e-014 179.96 1.74473e-005 -5.86411e-005 -20.3527 -5.15063 6.91087 161.166 34.7481 -102.045 17.4439 0 3.8147e-006 -0.795385 -74.6025 54.4372 30.6251 -1.90735e-006 7.10542e-015 -43.3981 3.70576e-006 6.07727e-006 31.204 -3.8147e-006 0 11.746 -24.1843 -5.75332 22.1039 0.255856 0.379028 -12.9068 -69.8476 1.83677 12.0552 -1.90735e-006 -3.81469e-006 -1.18025e-007 1.47461e-006 3.43236e-007 14.9357 -0.0105896 0.00104129 3.33111 -5.1659 -4.44931 14.3578 0.505509 3.20728e-010 0.182159 6.65641 0.602448 3.76994 -2.35631 12.3444 168.977 36.1582 -61.0094 3.76996 -2.35624 -12.3442 -12.2886 38.1801 119.298 11.8395 10.8645 -2.93774e-008 -173.147 -0.0630036 -179.996 9.73755 3.21672 -0.00274319 -0.972223 3.53143e-008 1.21321e-008 5.27072 0.746308 0.153271 -5.09505 -0.0593475 -0.00337445 6.93467 -0.751793 0.00124705 -66.289 2.46485 -9.58237 13.0965 0.00138855 0.0129514 5.47101 4.67109 -13.5287 25.6158 7.6294e-006 -2.98023e-008 2.76197e-007 -1.48109e-008 -2.0773e-009 
